# xmcd
#
# Track frame offsets: 
#        182
#        10635
#        21525
#        32410
#        41317
#        55902
#        67927
#        79597
#        93422
#        105877
#        118090
#        131760
#        141535
#        152285
#        162642
#        175730
#        186450
#        199502
#        209262
#        223157
#        235215
#        246197
#
# Disc length: 3468 seconds
#
# Revision: 7
# Processed by: cddbd v1.5.2PL0 Copyright (c) Steve Scherf et al.
# Submitted via: ExactAudioCopy v0.99pb4
#
DISCID=2b0d8a16
DTITLE=Various Artist - Rhythm And Blues - 1956
DYEAR=1991
DGENRE=R&B
TTITLE0=Frankie Lymon And The Teenagers - Why Do Fools Fall In Love
TTITLE1=Shirley And Lee - Let The Good Times Roll
TTITLE2=Little Richard - Rip It Up
TTITLE3=Fats Domino - I'm In Love Again
TTITLE4=Teen Queens - Eddie My Love
TTITLE5=Platters - The Great Pretender
TTITLE6=Bill Doggett - Honky Tonk (Part 2)
TTITLE7=Howlin' Wolf - Smoke Stack Lightning
TTITLE8=James Brown - Please Please Please
TTITLE9=Little Willie John - Fever
TTITLE10=Five Satins - In The Still Of The Nite
TTITLE11=Little Richard - Long Tall Sally
TTITLE12=Cadillacs - Speedoo
TTITLE13=Chuck Berry - Brown-Eyed Handsome Man
TTITLE14=Joe Turner - Corrine Corrina
TTITLE15=Fats Domino - Blueberry Hill
TTITLE16=Dells - Oh What A Nite
TTITLE17=Clyde McPhatter - Treasure Of Love
TTITLE18=Cadets - Stranded In The Jungle
TTITLE19=Sil Austin - Slow Walk
TTITLE20=Heartbeats - A Thousand Miles Away
TTITLE21=Jesse Belvin - Goodnight My Love
EXTD=Time-Life Music RHD-05 OPCD-2616
EXTT0=Frankie Lymon and the Teenagers
EXTT1=Shirley and Lee
EXTT2=Little Richard
EXTT3=Fats Domino
EXTT4=The Teen Queens
EXTT5=The Platters
EXTT6=Bill Doggett
EXTT7=Howlin' Wolf
EXTT8=James Brown
EXTT9=Little Willie John
EXTT10=The Five Satins
EXTT11=Little Richard
EXTT12=The Cadillacs
EXTT13=Chuck Berry
EXTT14=Joe Turner
EXTT15=Fats Domino
EXTT16=The Dells
EXTT17=Clyde McPhatter
EXTT18=The Cadets
EXTT19=Sil Austin
EXTT20=The Heartbeats
EXTT21=Jessie Belvin
PLAYORDER=
